<svg width="50" height="51" viewBox="0 0 50 51" fill="none" xmlns="http://www.w3.org/2000/svg">
<path d="M43.75 31.8099H40.625V34.9349H43.75V44.3099H6.25V34.9349H9.375V31.8099H6.25C5.42145 31.8108 4.62708 32.1403 4.0412 32.7261C3.45533 33.312 3.12583 34.1064 3.125 34.9349V44.3099C3.12583 45.1385 3.45533 45.9329 4.0412 46.5187C4.62708 47.1046 5.42145 47.4341 6.25 47.4349H43.75C44.5785 47.4341 45.3729 47.1046 45.9588 46.5187C46.5447 45.9329 46.8742 45.1385 46.875 44.3099V34.9349C46.8742 34.1064 46.5447 33.312 45.9588 32.7261C45.3729 32.1403 44.5785 31.8108 43.75 31.8099Z" fill="#0080FF"/>
<path d="M10.9375 41.1849C11.8004 41.1849 12.5 40.4854 12.5 39.6224C12.5 38.7595 11.8004 38.0599 10.9375 38.0599C10.0746 38.0599 9.375 38.7595 9.375 39.6224C9.375 40.4854 10.0746 41.1849 10.9375 41.1849Z" fill="#0080FF"/>
<path d="M23.4375 31.8099H12.5V20.8724H23.4375V31.8099ZM15.625 28.6849H20.3125V23.9974H15.625V28.6849ZM37.5 31.8099H26.5625V20.8724H37.5V31.8099ZM29.6875 28.6849H34.375V23.9974H29.6875V28.6849ZM23.4375 17.7474H12.5V6.80994H23.4375V17.7474ZM15.625 14.6224H20.3125V9.93494H15.625V14.6224ZM37.5 17.7474H26.5625V6.80994H37.5V17.7474ZM29.6875 14.6224H34.375V9.93494H29.6875V14.6224Z" fill="#0080FF"/>
</svg>
