<svg width="36" height="37" viewBox="0 0 36 37" fill="none" xmlns="http://www.w3.org/2000/svg">
<path d="M29.25 16.4224V2.80994H23.625V5.05994H27V7.30994H23.625V9.55994H27V16.4224C25.0875 16.8724 23.625 18.6724 23.625 20.8099C23.625 23.2849 25.65 25.3099 28.125 25.3099C30.6 25.3099 32.625 23.2849 32.625 20.8099C32.625 18.6724 31.1625 16.9849 29.25 16.4224ZM28.125 23.0599C26.8875 23.0599 25.875 22.0474 25.875 20.8099C25.875 19.5724 26.8875 18.5599 28.125 18.5599C29.3625 18.5599 30.375 19.5724 30.375 20.8099C30.375 22.0474 29.3625 23.0599 28.125 23.0599Z" fill="#0080FF"/>
<path d="M16.875 35.4349L10.6875 31.8349C6.8625 29.5849 4.5 25.5349 4.5 21.1474V5.05994C4.5 3.82244 5.5125 2.80994 6.75 2.80994H20.25V5.05994H6.75V21.1474C6.75 24.7474 8.6625 28.1224 11.8125 29.9224L16.875 32.9599L21.9375 29.9224C23.175 29.1349 24.3 28.2349 25.0875 26.9974L26.8875 28.2349C25.875 29.6974 24.525 30.9349 22.95 31.8349L16.875 35.4349Z" fill="#0080FF"/>
</svg>
