<svg width="50" height="51" viewBox="0 0 50 51" fill="none" xmlns="http://www.w3.org/2000/svg">
<path d="M42.1875 30.2474C41.7188 30.2474 41.0938 30.4037 40.625 30.5599L31.875 19.3099C33.4375 17.5912 34.375 15.4037 34.375 13.0599C34.375 7.90369 30.1562 3.68494 25 3.68494C19.8438 3.68494 15.625 7.90369 15.625 13.0599C15.625 15.5599 16.5625 17.7474 18.125 19.3099L9.375 30.5599C8.90625 30.4037 8.28125 30.2474 7.8125 30.2474C5.15625 30.2474 3.125 32.2787 3.125 34.9349C3.125 37.5912 5.15625 39.6224 7.8125 39.6224C10.4688 39.6224 12.5 37.5912 12.5 34.9349C12.5 33.9974 12.1875 33.2162 11.7188 32.4349L20.4688 21.3412C21.4062 21.8099 22.3438 22.1224 23.4375 22.2787V38.3724C21.5625 38.9974 20.3125 40.7162 20.3125 42.7474C20.3125 45.4037 22.3438 47.4349 25 47.4349C27.6562 47.4349 29.6875 45.4037 29.6875 42.7474C29.6875 40.7162 28.4375 38.9974 26.5625 38.3724V22.2787C27.6562 22.1224 28.5938 21.8099 29.5312 21.3412L38.2812 32.4349C37.8125 33.2162 37.5 33.9974 37.5 34.9349C37.5 37.5912 39.5312 39.6224 42.1875 39.6224C44.8438 39.6224 46.875 37.5912 46.875 34.9349C46.875 32.2787 44.8438 30.2474 42.1875 30.2474ZM25 6.80994C28.4375 6.80994 31.25 9.62244 31.25 13.0599C31.25 16.4974 28.4375 19.3099 25 19.3099C21.5625 19.3099 18.75 16.4974 18.75 13.0599C18.75 9.62244 21.5625 6.80994 25 6.80994ZM7.8125 36.4974C6.875 36.4974 6.25 35.8724 6.25 34.9349C6.25 33.9974 6.875 33.3724 7.8125 33.3724C8.75 33.3724 9.375 33.9974 9.375 34.9349C9.375 35.8724 8.75 36.4974 7.8125 36.4974ZM25 44.3099C24.0625 44.3099 23.4375 43.6849 23.4375 42.7474C23.4375 41.8099 24.0625 41.1849 25 41.1849C25.9375 41.1849 26.5625 41.8099 26.5625 42.7474C26.5625 43.6849 25.9375 44.3099 25 44.3099ZM42.1875 36.4974C41.25 36.4974 40.625 35.8724 40.625 34.9349C40.625 33.9974 41.25 33.3724 42.1875 33.3724C43.125 33.3724 43.75 33.9974 43.75 34.9349C43.75 35.8724 43.125 36.4974 42.1875 36.4974Z" fill="#0080FF"/>
</svg>
