<svg width="36" height="37" viewBox="0 0 36 37" fill="none" xmlns="http://www.w3.org/2000/svg">
<path d="M30.375 25.3099V19.6849C30.3744 19.0884 30.1372 18.5164 29.7153 18.0946C29.2935 17.6728 28.7216 17.4355 28.125 17.4349H19.125V11.8099H22.5C23.0966 11.8093 23.6685 11.5721 24.0903 11.1503C24.5122 10.7284 24.7494 10.1565 24.75 9.55994V5.05994C24.7494 4.46338 24.5122 3.89143 24.0903 3.4696C23.6685 3.04778 23.0966 2.81053 22.5 2.80994H13.5C12.9034 2.81053 12.3315 3.04778 11.9097 3.4696C11.4878 3.89143 11.2506 4.46338 11.25 5.05994V9.55994C11.2506 10.1565 11.4878 10.7284 11.9097 11.1503C12.3315 11.5721 12.9034 11.8093 13.5 11.8099H16.875V17.4349H7.875C7.27845 17.4355 6.7065 17.6728 6.28467 18.0946C5.86284 18.5164 5.6256 19.0884 5.625 19.6849V25.3099H2.25V34.3099H11.25V25.3099H7.875V19.6849H16.875V25.3099H13.5V34.3099H22.5V25.3099H19.125V19.6849H28.125V25.3099H24.75V34.3099H33.75V25.3099H30.375ZM13.5 5.05994H22.5V9.55994H13.5V5.05994ZM9 32.0599H4.5V27.5599H9V32.0599ZM20.25 32.0599H15.75V27.5599H20.25V32.0599ZM31.5 32.0599H27V27.5599H31.5V32.0599Z" fill="#0080FF"/>
</svg>
