<svg width="50" height="51" viewBox="0 0 50 51" fill="none" xmlns="http://www.w3.org/2000/svg">
<path d="M32.8125 36.4974C34.5384 36.4974 35.9375 35.0983 35.9375 33.3724C35.9375 31.6465 34.5384 30.2474 32.8125 30.2474C31.0866 30.2474 29.6875 31.6465 29.6875 33.3724C29.6875 35.0983 31.0866 36.4974 32.8125 36.4974Z" fill="#0080FF"/>
<path d="M10.9375 14.6224C12.6634 14.6224 14.0625 13.2233 14.0625 11.4974C14.0625 9.77155 12.6634 8.37244 10.9375 8.37244C9.21161 8.37244 7.8125 9.77155 7.8125 11.4974C7.8125 13.2233 9.21161 14.6224 10.9375 14.6224Z" fill="#0080FF"/>
<path d="M42.1875 48.9974C40.9514 48.9974 39.743 48.6309 38.7152 47.9441C37.6874 47.2574 36.8863 46.2812 36.4133 45.1392C35.9402 43.9972 35.8164 42.7405 36.0576 41.5281C36.2988 40.3157 36.894 39.2021 37.7681 38.328C38.6422 37.4539 39.7558 36.8587 40.9682 36.6175C42.1806 36.3764 43.4372 36.5001 44.5793 36.9732C45.7213 37.4462 46.6974 38.2473 47.3842 39.2751C48.0709 40.3029 48.4375 41.5113 48.4375 42.7474C48.4326 44.4035 47.7725 45.9904 46.6015 47.1614C45.4304 48.3324 43.8436 48.9925 42.1875 48.9974ZM42.1875 39.6224C41.5694 39.6224 40.9652 39.8057 40.4513 40.1491C39.9374 40.4925 39.5369 40.9805 39.3004 41.5516C39.0639 42.1226 39.002 42.7509 39.1225 43.3571C39.2431 43.9633 39.5408 44.5201 39.9778 44.9571C40.4148 45.3942 40.9717 45.6918 41.5778 45.8124C42.184 45.933 42.8124 45.8711 43.3834 45.6346C43.9544 45.398 44.4425 44.9975 44.7858 44.4836C45.1292 43.9697 45.3125 43.3655 45.3125 42.7474C45.31 41.9194 44.98 41.126 44.3945 40.5405C43.809 39.9549 43.0155 39.6249 42.1875 39.6224Z" fill="#0080FF"/>
<path d="M46.875 25.5599C46.8581 19.7635 44.548 14.2093 40.4493 10.1106C36.3506 6.01194 30.7964 3.70184 25 3.68493C21.2676 3.6317 17.5923 4.60458 14.375 6.49743L16.0938 9.15368C17.3151 8.56664 18.5669 8.04507 19.8438 7.59118C17.2608 12.6879 15.821 18.2869 15.625 23.9974H6.25C6.42508 21.4175 7.17232 18.9089 8.4375 16.6537L6.09375 14.6224C4.14956 17.9396 3.12479 21.715 3.125 25.5599C3.12459 28.4327 3.69012 31.2774 4.7893 33.9316C5.88848 36.5858 7.49976 38.9974 9.53112 41.0288C11.5625 43.0602 13.9741 44.6715 16.6283 45.7706C19.2825 46.8698 22.1272 47.4353 25 47.4349C27.7854 47.4612 30.548 46.9299 33.125 45.8724L32.1875 42.9037C29.6257 43.9991 26.8434 44.4807 24.0625 44.3099C20.7304 39.185 18.8909 33.2337 18.75 27.1224H46.7188C46.8479 26.6122 46.9006 26.0856 46.875 25.5599ZM20 43.6849C16.8929 42.7536 14.0535 41.0929 11.7188 38.8412C8.61852 35.6689 6.68992 31.5362 6.25 27.1224H15.625C15.84 32.899 17.3343 38.5558 20 43.6849ZM18.75 23.9974C18.8743 17.9061 20.657 11.9638 23.9062 6.80993H26.0938C29.3431 11.9638 31.1257 17.9061 31.25 23.9974H18.75ZM34.375 23.9974C34.2561 18.207 32.7562 12.5287 30 7.43493C33.6764 8.49459 36.9444 10.6454 39.3717 13.6029C41.7991 16.5603 43.2713 20.185 43.5938 23.9974H34.375Z" fill="#0080FF"/>
</svg>
