<svg width="50" height="51" viewBox="0 0 50 51" fill="none" xmlns="http://www.w3.org/2000/svg">
<path d="M43.75 31.8099H40.625V34.9349H43.75V44.3099H6.25V34.9349H9.375V31.8099H6.25C5.42145 31.8108 4.62708 32.1403 4.0412 32.7261C3.45533 33.312 3.12583 34.1064 3.125 34.9349V44.3099C3.12583 45.1385 3.45533 45.9329 4.0412 46.5187C4.62708 47.1046 5.42145 47.4341 6.25 47.4349H43.75C44.5785 47.4341 45.3729 47.1046 45.9588 46.5187C46.5447 45.9329 46.8742 45.1385 46.875 44.3099V34.9349C46.8742 34.1064 46.5447 33.312 45.9588 32.7261C45.3729 32.1403 44.5785 31.8108 43.75 31.8099Z" fill="#0080FF"/>
<path d="M10.9375 41.1849C11.8004 41.1849 12.5 40.4854 12.5 39.6224C12.5 38.7595 11.8004 38.0599 10.9375 38.0599C10.0746 38.0599 9.375 38.7595 9.375 39.6224C9.375 40.4854 10.0746 41.1849 10.9375 41.1849Z" fill="#0080FF"/>
<path d="M35.4797 11.9552L27.6672 4.14275C27.3742 3.8497 26.9769 3.68503 26.5625 3.68494H17.1875C16.359 3.68576 15.5646 4.01527 14.9787 4.60114C14.3928 5.18701 14.0633 5.98139 14.0625 6.80994V31.8099C14.0633 32.6385 14.3928 33.4329 14.9787 34.0187C15.5646 34.6046 16.359 34.9341 17.1875 34.9349H32.8125C33.641 34.9341 34.4354 34.6046 35.0213 34.0187C35.6072 33.4329 35.9367 32.6385 35.9375 31.8099V13.0599C35.9374 12.6456 35.7727 12.2482 35.4797 11.9552ZM32.1656 13.0599H26.5625V7.45681L32.1656 13.0599ZM17.1875 31.8099V6.80994H23.4375V13.0599C23.4383 13.8885 23.7678 14.6829 24.3537 15.2687C24.9396 15.8546 25.734 16.1841 26.5625 16.1849H32.8125V31.8099H17.1875Z" fill="#0080FF"/>
</svg>
