<svg width="36" height="74" viewBox="0 0 36 74" fill="none" xmlns="http://www.w3.org/2000/svg">
<g clip-path="url(#clip0_675_61)">
<path d="M24.9128 1.85351C24.5859 1.35575 23.9174 1.21725 23.4196 1.54417C22.9219 1.87108 22.7833 2.5396 23.1103 3.03736L24.9128 1.85351ZM0.771028 71.1572C0.765258 71.7527 1.24338 72.2399 1.83883 72.2459L11.5428 72.3394C12.1383 72.3449 12.6257 71.867 12.6314 71.2715C12.6372 70.676 12.1591 70.1883 11.5636 70.1828L2.93782 70.0997L3.02084 61.4738C3.02656 60.8783 2.54844 60.3911 1.95296 60.3856C1.3575 60.3796 0.870084 60.858 0.864391 61.453L0.771028 71.1572ZM23.1103 3.03736C25.3869 6.50381 27.4915 11.67 29.0461 17.3853C30.5978 23.0899 31.5801 29.2629 31.6559 34.7102C31.7325 40.2131 30.8796 44.7579 28.9741 47.3995C28.0485 48.6827 26.8908 49.4967 25.4523 49.7977C23.9905 50.1035 22.1166 49.9044 19.738 48.9178L18.9118 50.9097C21.548 52.0033 23.8771 52.3304 25.8939 51.9085C27.9341 51.4817 29.5309 50.3139 30.7231 48.6611C33.0535 45.4305 33.8903 40.2858 33.8122 34.6801C33.7334 29.0188 32.7168 22.6638 31.127 16.8192C29.5402 10.9853 27.3608 5.58094 24.9128 1.85351L23.1103 3.03736ZM19.738 48.9178C16.6036 47.6177 14.7605 46.3673 13.7731 45.3106C12.798 44.2671 12.7538 43.5366 12.8742 43.1203C13.0107 42.6487 13.475 42.1586 14.2691 41.8528C15.0489 41.5524 15.982 41.5031 16.7786 41.7619C17.5433 42.0104 18.1852 42.5382 18.5094 43.4597C18.8465 44.4181 18.8845 45.9356 18.1033 48.2032C16.5343 52.7578 11.8176 59.8791 1.09414 70.398L2.60432 71.9372C13.3853 61.3619 18.4041 53.9512 20.1423 48.9056C21.0147 46.3732 21.0994 44.3237 20.5437 42.744C19.975 41.1275 18.7845 40.1463 17.4451 39.7109C16.1375 39.286 14.6945 39.378 13.494 39.8403C12.3078 40.2972 11.1875 41.1911 10.8027 42.5208C10.4019 43.9059 10.8997 45.3943 12.1975 46.7831C13.483 48.1588 15.6438 49.5543 18.9118 50.9097L19.738 48.9178Z" fill="#0080FF"/>
</g>
<defs>
<clipPath id="clip0_675_61">
<rect width="32.3494" height="72.5677" fill="white" transform="matrix(-0.999048 -0.0436289 -0.0436289 0.999048 35.4846 1.41138)"/>
</clipPath>
</defs>
</svg>
