<svg width="37" height="84" viewBox="0 0 37 84" fill="none" xmlns="http://www.w3.org/2000/svg">
<g clip-path="url(#clip0_662_12269)">
<path d="M12.0581 1.59271C12.4565 1.04025 13.2273 0.91535 13.7798 1.31375C14.3322 1.71213 14.4572 2.48295 14.0588 3.03542L12.0581 1.59271ZM36.1859 81.9887C36.1628 82.6695 35.5921 83.2023 34.9114 83.1795L23.8183 82.8021C23.1376 82.7786 22.6045 82.2083 22.6277 81.5275C22.6508 80.8467 23.2214 80.3133 23.9021 80.3367L33.7627 80.6722L34.0983 70.8115C34.1215 70.1307 34.6921 69.5979 35.3729 69.6214C36.0536 69.6442 36.5867 70.2152 36.5635 70.8953L36.1859 81.9887ZM14.0588 3.03542C11.2844 6.88281 8.62164 12.681 6.56008 19.1341C4.50231 25.5753 3.07187 32.5799 2.71341 38.8006C2.35129 45.0848 3.09909 50.3205 5.14459 53.4341C6.13824 54.9466 7.42042 55.9345 9.04916 56.3502C10.7043 56.7726 12.8554 56.6386 15.6227 55.6299L16.4674 57.9473C13.4004 59.0653 10.7228 59.3229 8.43924 58.7402C6.12931 58.1507 4.36298 56.7366 3.08309 54.7884C0.581504 50.9806 -0.117957 45.0602 0.250928 38.6586C0.623475 32.1935 2.1023 24.9825 4.21049 18.3835C6.31484 11.7964 9.07481 5.72978 12.0581 1.59271L14.0588 3.03542ZM15.6227 55.6299C19.2691 54.3008 21.4375 52.9639 22.6185 51.8058C23.7849 50.662 23.8719 49.8295 23.755 49.3478C23.6226 48.8021 23.1165 48.2189 22.2244 47.8299C21.3483 47.4477 20.2845 47.3447 19.3614 47.6008C18.4751 47.8466 17.7154 48.4176 17.299 49.4544C16.8659 50.5327 16.7467 52.2649 17.5262 54.895C19.0918 60.1776 24.1261 68.5503 35.8546 81.1051L34.0521 82.7885C22.2608 70.1665 16.8957 61.448 15.1613 55.5958C14.2907 52.6586 14.2963 50.3124 15.0101 48.5351C15.7406 46.7163 17.1499 45.6545 18.7021 45.2239C20.2175 44.8036 21.8617 44.9807 23.2105 45.5689C24.5431 46.1502 25.7786 47.2275 26.152 48.7662C26.5409 50.3689 25.8978 52.0447 24.3455 53.5669C22.8079 55.0747 20.2693 56.5615 16.4674 57.9473L15.6227 55.6299Z" fill="#0080FF"/>
</g>
<defs>
<clipPath id="clip0_662_12269">
<rect width="37" height="83" fill="white" transform="translate(0 0.559937)"/>
</clipPath>
</defs>
</svg>
