<svg width="248" height="56" viewBox="0 0 248 56" fill="none" xmlns="http://www.w3.org/2000/svg">
<path d="M15.8592 15.5466C15.8592 20.2403 15.8282 20.7515 15.5803 21.1698C14.527 22.9048 13.9228 25.6466 14.0467 28.0632C14.2326 31.719 15.6578 34.7242 18.4461 37.3577C24.0383 42.6555 32.9145 42.1443 37.949 36.2423L38.7081 35.3594L42.7047 35.3439C45.3227 35.3439 46.6859 35.4058 46.6859 35.4988C46.6859 35.8396 45.524 37.9463 44.6256 39.263C41.6513 43.6314 36.7717 46.8071 31.5513 47.7985C23.6975 49.2856 15.8592 46.2649 11.057 39.9137C8.40809 36.3972 7.10686 32.7724 6.92098 28.373C6.71959 23.1836 7.98984 18.9701 10.9951 14.958C12.1724 13.3934 15.2705 10.4037 15.7197 10.4037C15.7972 10.4037 15.8592 12.7273 15.8592 15.5466Z" fill="#0080FF"/>
<path d="M32.9247 7.33656C36.8903 8.25052 39.911 9.90803 42.6839 12.7119C44.2949 14.3229 45.6117 16.1663 46.4482 17.9168C48.4929 22.2232 48.8647 27.4126 47.486 31.9669L47.0833 33.2527H43.1486C40.9799 33.2527 39.1985 33.2062 39.1985 33.1597C39.1985 33.1132 39.3379 32.8654 39.5238 32.6175C40.5926 31.1149 41.2587 28.7139 41.2587 26.3593C41.2742 24.206 40.9799 22.9978 39.9265 20.86C39.2295 19.4039 38.9816 19.0631 37.5874 17.6844C35.9144 16.0114 34.4273 15.082 32.4755 14.4933C31.2207 14.106 28.5408 13.8582 26.3411 13.9201L24.5597 13.9666L24.5132 26.5761C24.4822 38.4266 24.4667 39.1702 24.2189 39.0617C23.4908 38.7984 20.5785 36.9395 19.4787 36.041C18.5492 35.2975 18.1 34.8172 17.7902 34.1976L17.3564 33.3766V20.132V6.90282L24.4512 6.96478C30.8954 7.01125 31.6544 7.05773 32.9247 7.33656Z" fill="#114FFF"/>
<path d="M72.5198 18.3991C74.038 18.3991 75.4752 18.6926 76.8315 19.2796C78.208 19.8667 79.4225 20.6764 80.4751 21.7087C81.5277 22.7208 82.3577 23.9253 82.965 25.322C83.5925 26.6985 83.9062 28.1863 83.9062 29.7855C83.9062 31.3037 83.6127 32.751 83.0257 34.1275C82.4387 35.4837 81.629 36.6882 80.5966 37.7408C79.5845 38.7934 78.38 39.6334 76.9833 40.261C75.6068 40.8682 74.119 41.1719 72.5198 41.1719C71.0017 41.1719 69.5543 40.8784 68.1778 40.2913C66.8013 39.7043 65.5868 38.8946 64.5342 37.8622C63.5018 36.8299 62.6719 35.6254 62.0444 34.2489C61.4371 32.8522 61.1334 31.3644 61.1334 29.7855C61.1334 28.247 61.427 26.7997 62.014 25.4435C62.601 24.067 63.4006 22.8625 64.4127 21.8302C65.4451 20.7978 66.6495 19.978 68.026 19.3707C69.4227 18.7634 70.9207 18.4396 72.5198 18.3991ZM72.5198 37.3764C73.5117 37.3764 74.4631 37.1841 75.374 36.7995C76.3052 36.3946 77.1149 35.8481 77.8031 35.1599C78.5116 34.4716 79.0683 33.672 79.4731 32.7611C79.8982 31.83 80.1108 30.8381 80.1108 29.7855C80.1108 28.7734 79.9083 27.8118 79.5035 26.9009C79.1189 25.9698 78.5825 25.1601 77.8942 24.4718C77.206 23.7633 76.3963 23.2067 75.4651 22.8018C74.5542 22.3767 73.5724 22.1642 72.5198 22.1642C71.5077 22.1642 70.5361 22.3666 69.6049 22.7715C68.694 23.1561 67.8843 23.6925 67.1758 24.3807C66.4876 25.069 65.9309 25.8787 65.5058 26.8098C65.101 27.741 64.8985 28.7329 64.8985 29.7855C64.8985 30.8178 65.0908 31.7895 65.4755 32.7004C65.8803 33.5911 66.4268 34.3805 67.1151 35.0688C67.8033 35.757 68.6029 36.3036 69.5138 36.7084C70.445 37.1133 71.447 37.3359 72.5198 37.3764ZM104.73 21.314L108.526 18.3384V41.1719L92.8882 27.2349V38.1962L89.0927 41.1719V18.3384L104.73 32.7004V21.314ZM124.183 18.3687L135.6 41.1719H130.984L124.183 26.8402L117.412 41.1719H112.796L124.183 18.3687ZM139.887 18.3991H143.652V38.2266L139.887 41.1719V18.3991ZM157.559 18.3991C159.138 18.4396 160.616 18.7736 161.992 19.4011C163.369 20.0084 164.573 20.8282 165.606 21.8605C166.638 22.8929 167.448 24.0973 168.035 25.4738C168.622 26.8301 168.915 28.2673 168.915 29.7855C168.915 31.3644 168.602 32.8522 167.974 34.2489C167.347 35.6254 166.507 36.8299 165.454 37.8622C164.401 38.8744 163.187 39.6739 161.81 40.261C160.454 40.848 159.037 41.1516 157.559 41.1719H149.968V37.346H158.015C159.007 37.3865 159.928 37.1942 160.778 36.7691C161.648 36.344 162.407 35.7773 163.055 35.0688C163.703 34.34 164.209 33.5202 164.573 32.6093C164.958 31.6781 165.15 30.7369 165.15 29.7855C165.15 28.8341 164.958 27.9029 164.573 26.992C164.209 26.0609 163.703 25.241 163.055 24.5326C162.428 23.8241 161.679 23.2573 160.808 22.8322C159.938 22.4071 159.007 22.2047 158.015 22.2249H149.968V18.3991H157.559ZM184.338 18.3991C185.856 18.3991 187.293 18.6926 188.649 19.2796C190.026 19.8667 191.241 20.6764 192.293 21.7087C193.346 22.7208 194.176 23.9253 194.783 25.322C195.41 26.6985 195.724 28.1863 195.724 29.7855C195.724 31.3037 195.431 32.751 194.844 34.1275C194.257 35.4837 193.447 36.6882 192.415 37.7408C191.402 38.7934 190.198 39.6334 188.801 40.261C187.425 40.8682 185.937 41.1719 184.338 41.1719C182.82 41.1719 181.372 40.8784 179.996 40.2913C178.619 39.7043 177.405 38.8946 176.352 37.8622C175.32 36.8299 174.49 35.6254 173.862 34.2489C173.255 32.8522 172.951 31.3644 172.951 29.7855C172.951 28.247 173.245 26.7997 173.832 25.4435C174.419 24.067 175.219 22.8625 176.231 21.8302C177.263 20.7978 178.468 19.978 179.844 19.3707C181.241 18.7634 182.739 18.4396 184.338 18.3991ZM184.338 37.3764C185.33 37.3764 186.281 37.1841 187.192 36.7995C188.123 36.3946 188.933 35.8481 189.621 35.1599C190.33 34.4716 190.886 33.672 191.291 32.7611C191.716 31.83 191.929 30.8381 191.929 29.7855C191.929 28.7734 191.726 27.8118 191.321 26.9009C190.937 25.9698 190.4 25.1601 189.712 24.4718C189.024 23.7633 188.214 23.2067 187.283 22.8018C186.372 22.3767 185.39 22.1642 184.338 22.1642C183.326 22.1642 182.354 22.3666 181.423 22.7715C180.512 23.1561 179.702 23.6925 178.994 24.3807C178.306 25.069 177.749 25.8787 177.324 26.8098C176.919 27.741 176.717 28.7329 176.717 29.7855C176.717 30.8178 176.909 31.7895 177.293 32.7004C177.698 33.5911 178.245 34.3805 178.933 35.0688C179.621 35.757 180.421 36.3036 181.332 36.7084C182.263 37.1133 183.265 37.3359 184.338 37.3764ZM218.188 37.7408C217.115 38.7934 215.89 39.6233 214.514 40.2306C213.137 40.8176 211.7 41.1111 210.202 41.1111C208.724 41.1111 207.297 40.8176 205.921 40.2306C204.564 39.6233 203.36 38.8035 202.307 37.7711C201.255 36.7388 200.415 35.5343 199.787 34.1579C199.16 32.7814 198.846 31.3138 198.846 29.7551C198.846 28.2774 199.14 26.8604 199.727 25.5042C200.334 24.1277 201.154 22.9132 202.186 21.8605C203.218 20.8079 204.423 19.9679 205.799 19.3404C207.176 18.7128 208.643 18.3991 210.202 18.3991C211.7 18.3991 213.137 18.7027 214.514 19.31C215.89 19.897 217.115 20.7168 218.188 21.7695L215.667 24.2896C214.838 23.6621 213.977 23.1561 213.087 22.7715C212.216 22.3666 211.255 22.1642 210.202 22.1642C209.149 22.1642 208.158 22.3666 207.226 22.7715C206.315 23.1561 205.516 23.6925 204.828 24.3807C204.16 25.069 203.623 25.8787 203.218 26.8098C202.834 27.7207 202.641 28.7025 202.641 29.7551C202.641 30.8077 202.834 31.7996 203.218 32.7308C203.623 33.6417 204.16 34.4412 204.828 35.1295C205.516 35.7975 206.315 36.3339 207.226 36.7388C208.158 37.1234 209.149 37.3157 210.202 37.3157C211.255 37.3157 212.206 37.1234 213.056 36.7388C213.906 36.3542 214.645 35.8481 215.273 35.2206L218.188 37.7408ZM231.441 27.6904C231.603 27.7106 231.876 27.7511 232.261 27.8118C232.666 27.8726 233.111 27.994 233.597 28.1762C234.103 28.3381 234.619 28.5608 235.145 28.8442C235.672 29.1276 236.147 29.5223 236.572 30.0284C236.998 30.5142 237.352 31.1114 237.635 31.8198C237.919 32.5283 238.06 33.3785 238.06 34.3704C238.06 34.4109 238.04 34.6133 238 34.9777C237.979 35.3218 237.888 35.7469 237.726 36.253C237.564 36.759 237.321 37.2954 236.998 37.8622C236.674 38.429 236.208 38.9654 235.601 39.4715C234.994 39.9573 234.224 40.3622 233.293 40.6861C232.382 41.0099 231.259 41.1719 229.923 41.1719C228.688 41.1719 227.514 40.9188 226.401 40.4128C225.308 39.8865 224.366 39.1679 223.577 38.257L226.674 35.8582C226.674 35.8785 226.745 35.9696 226.886 36.1315C227.048 36.2934 227.271 36.4655 227.554 36.6477C227.858 36.8299 228.233 37.0019 228.678 37.1639C229.143 37.3056 229.69 37.3764 230.318 37.3764C231.471 37.3764 232.372 37.0829 233.02 36.4959C233.668 35.8886 233.992 35.1801 233.992 34.3704C233.992 33.7834 233.87 33.3077 233.627 32.9433C233.384 32.5587 233.05 32.2551 232.625 32.0324C232.22 31.7895 231.745 31.6073 231.198 31.4858C230.672 31.3441 230.105 31.2126 229.498 31.0911C229.336 31.0709 229.062 31.0203 228.678 30.9393C228.314 30.8583 227.899 30.7268 227.433 30.5446C226.988 30.3624 226.512 30.1296 226.006 29.8462C225.52 29.5426 225.075 29.1681 224.67 28.7227C224.285 28.2572 223.961 27.7106 223.698 27.0831C223.435 26.4353 223.304 25.6763 223.304 24.8058C223.304 24.7653 223.314 24.5832 223.334 24.2593C223.374 23.9152 223.465 23.5103 223.607 23.0447C223.769 22.5589 224.012 22.0427 224.336 21.4962C224.68 20.9496 225.156 20.4537 225.763 20.0084C226.37 19.5428 227.129 19.1582 228.04 18.8545C228.971 18.5509 230.105 18.3991 231.441 18.3991C232.676 18.3991 233.85 18.6622 234.963 19.1885C236.077 19.7148 237.028 20.4334 237.817 21.3444L234.72 23.7431C234.498 23.3585 234.184 23.065 233.779 22.8625C233.374 22.6399 232.969 22.4779 232.564 22.3767C232.079 22.2755 231.562 22.2148 231.016 22.1945C229.862 22.1945 228.961 22.4273 228.314 22.8929C227.666 23.3382 227.342 23.9759 227.342 24.8058C227.342 25.3929 227.443 25.8584 227.646 26.2026C227.848 26.5264 228.121 26.7795 228.465 26.9616C228.83 27.1438 229.265 27.2855 229.771 27.3867C230.277 27.4677 230.834 27.5689 231.441 27.6904Z" fill="black"/>
</svg>
